<mxfile host="Electron" agent="Mozilla/5.0 (X11; Linux x86_64) AppleWebKit/537.36 (KHTML, like Gecko) draw.io/26.0.4 Chrome/128.0.6613.186 Electron/32.2.5 Safari/537.36" version="26.0.4" pages="2">
  <diagram name="Page-1" id="Zdsm9aisuOk1_PiO5gCI">
    <mxGraphModel dx="1434" dy="843" grid="1" gridSize="10" guides="1" tooltips="1" connect="1" arrows="1" fold="1" page="1" pageScale="1" pageWidth="850" pageHeight="1100" math="0" shadow="0">
      <root>
        <mxCell id="0" />
        <mxCell id="1" parent="0" />
        <mxCell id="K4dFCDs9XO1rs7Z-Aw9C-22" value="" style="rounded=0;whiteSpace=wrap;html=1;fillColor=none;dashed=1;strokeWidth=5;" vertex="1" parent="1">
          <mxGeometry x="10" y="340" width="350" height="490" as="geometry" />
        </mxCell>
        <mxCell id="Rj8yvfiRaS_MhN0IEIkL-1" value="&lt;b&gt;LIKES:list&amp;lt;str&amp;gt;&lt;/b&gt;" style="rounded=0;whiteSpace=wrap;html=1;" vertex="1" parent="1">
          <mxGeometry x="40" y="20" width="120" height="60" as="geometry" />
        </mxCell>
        <mxCell id="Rj8yvfiRaS_MhN0IEIkL-3" value="&lt;b&gt;DISLIKES:list&amp;lt;str&amp;gt;&lt;/b&gt;" style="rounded=0;whiteSpace=wrap;html=1;" vertex="1" parent="1">
          <mxGeometry x="200" y="20" width="120" height="60" as="geometry" />
        </mxCell>
        <mxCell id="Rj8yvfiRaS_MhN0IEIkL-11" style="edgeStyle=orthogonalEdgeStyle;rounded=0;orthogonalLoop=1;jettySize=auto;html=1;entryX=0.5;entryY=0;entryDx=0;entryDy=0;" edge="1" parent="1" source="Rj8yvfiRaS_MhN0IEIkL-4" target="Rj8yvfiRaS_MhN0IEIkL-10">
          <mxGeometry relative="1" as="geometry" />
        </mxCell>
        <mxCell id="K4dFCDs9XO1rs7Z-Aw9C-23" style="edgeStyle=orthogonalEdgeStyle;rounded=0;orthogonalLoop=1;jettySize=auto;html=1;" edge="1" parent="1" source="Rj8yvfiRaS_MhN0IEIkL-4" target="K4dFCDs9XO1rs7Z-Aw9C-22">
          <mxGeometry relative="1" as="geometry" />
        </mxCell>
        <mxCell id="Rj8yvfiRaS_MhN0IEIkL-4" value="for each &lt;b&gt;artist&lt;/b&gt;&lt;div&gt;on&lt;br&gt;&lt;b&gt;LIKES&lt;/b&gt; and &lt;b&gt;DISLIKES&lt;/b&gt;&lt;/div&gt;" style="ellipse;whiteSpace=wrap;html=1;aspect=fixed;" vertex="1" parent="1">
          <mxGeometry x="130" y="220" width="110" height="110" as="geometry" />
        </mxCell>
        <mxCell id="Rj8yvfiRaS_MhN0IEIkL-9" style="edgeStyle=orthogonalEdgeStyle;rounded=0;orthogonalLoop=1;jettySize=auto;html=1;entryX=0.5;entryY=0;entryDx=0;entryDy=0;" edge="1" parent="1" source="Rj8yvfiRaS_MhN0IEIkL-6" target="Rj8yvfiRaS_MhN0IEIkL-4">
          <mxGeometry relative="1" as="geometry" />
        </mxCell>
        <mxCell id="Rj8yvfiRaS_MhN0IEIkL-6" value="&lt;b&gt;START&lt;/b&gt;" style="html=1;dashed=0;whiteSpace=wrap;shape=mxgraph.dfd.start" vertex="1" parent="1">
          <mxGeometry x="145" y="140" width="80" height="30" as="geometry" />
        </mxCell>
        <mxCell id="Rj8yvfiRaS_MhN0IEIkL-7" style="edgeStyle=orthogonalEdgeStyle;rounded=0;orthogonalLoop=1;jettySize=auto;html=1;entryX=0.5;entryY=0.5;entryDx=0;entryDy=-15;entryPerimeter=0;" edge="1" parent="1" source="Rj8yvfiRaS_MhN0IEIkL-1" target="Rj8yvfiRaS_MhN0IEIkL-6">
          <mxGeometry relative="1" as="geometry" />
        </mxCell>
        <mxCell id="Rj8yvfiRaS_MhN0IEIkL-8" style="edgeStyle=orthogonalEdgeStyle;rounded=0;orthogonalLoop=1;jettySize=auto;html=1;entryX=0.5;entryY=0.5;entryDx=0;entryDy=-15;entryPerimeter=0;" edge="1" parent="1" source="Rj8yvfiRaS_MhN0IEIkL-3" target="Rj8yvfiRaS_MhN0IEIkL-6">
          <mxGeometry relative="1" as="geometry" />
        </mxCell>
        <mxCell id="Rj8yvfiRaS_MhN0IEIkL-13" style="edgeStyle=orthogonalEdgeStyle;rounded=0;orthogonalLoop=1;jettySize=auto;html=1;" edge="1" parent="1" source="Rj8yvfiRaS_MhN0IEIkL-10" target="Rj8yvfiRaS_MhN0IEIkL-12">
          <mxGeometry relative="1" as="geometry" />
        </mxCell>
        <mxCell id="Rj8yvfiRaS_MhN0IEIkL-10" value="Get artist ID on Ontolgy" style="rounded=0;whiteSpace=wrap;html=1;" vertex="1" parent="1">
          <mxGeometry x="125" y="380" width="120" height="60" as="geometry" />
        </mxCell>
        <mxCell id="Rj8yvfiRaS_MhN0IEIkL-17" style="edgeStyle=orthogonalEdgeStyle;rounded=0;orthogonalLoop=1;jettySize=auto;html=1;" edge="1" parent="1" source="Rj8yvfiRaS_MhN0IEIkL-12" target="Rj8yvfiRaS_MhN0IEIkL-15">
          <mxGeometry relative="1" as="geometry" />
        </mxCell>
        <mxCell id="Rj8yvfiRaS_MhN0IEIkL-12" value="Get &lt;b&gt;influencedBy&lt;/b&gt; IDs" style="rounded=0;whiteSpace=wrap;html=1;" vertex="1" parent="1">
          <mxGeometry x="125" y="470" width="120" height="40" as="geometry" />
        </mxCell>
        <mxCell id="Rj8yvfiRaS_MhN0IEIkL-19" style="edgeStyle=orthogonalEdgeStyle;rounded=0;orthogonalLoop=1;jettySize=auto;html=1;" edge="1" parent="1" source="Rj8yvfiRaS_MhN0IEIkL-15" target="Rj8yvfiRaS_MhN0IEIkL-18">
          <mxGeometry relative="1" as="geometry" />
        </mxCell>
        <mxCell id="Rj8yvfiRaS_MhN0IEIkL-21" value="&lt;b&gt;YES&lt;/b&gt;" style="edgeLabel;html=1;align=center;verticalAlign=middle;resizable=0;points=[];" vertex="1" connectable="0" parent="Rj8yvfiRaS_MhN0IEIkL-19">
          <mxGeometry x="-0.1683" y="1" relative="1" as="geometry">
            <mxPoint as="offset" />
          </mxGeometry>
        </mxCell>
        <mxCell id="Rj8yvfiRaS_MhN0IEIkL-23" style="edgeStyle=orthogonalEdgeStyle;rounded=0;orthogonalLoop=1;jettySize=auto;html=1;entryX=0.5;entryY=0;entryDx=0;entryDy=0;" edge="1" parent="1" source="Rj8yvfiRaS_MhN0IEIkL-15" target="Rj8yvfiRaS_MhN0IEIkL-22">
          <mxGeometry relative="1" as="geometry" />
        </mxCell>
        <mxCell id="Rj8yvfiRaS_MhN0IEIkL-15" value="artist in &lt;b&gt;LIKES&lt;/b&gt;" style="rhombus;whiteSpace=wrap;html=1;" vertex="1" parent="1">
          <mxGeometry x="132.5" y="550" width="105" height="110" as="geometry" />
        </mxCell>
        <mxCell id="Rj8yvfiRaS_MhN0IEIkL-18" value="&lt;b&gt;+1 on preferences mapping&lt;/b&gt;" style="rounded=0;whiteSpace=wrap;html=1;" vertex="1" parent="1">
          <mxGeometry x="25" y="710" width="120" height="60" as="geometry" />
        </mxCell>
        <mxCell id="Rj8yvfiRaS_MhN0IEIkL-22" value="&lt;b&gt;-1 on preferences mapping&lt;/b&gt;" style="rounded=0;whiteSpace=wrap;html=1;" vertex="1" parent="1">
          <mxGeometry x="220" y="710" width="120" height="60" as="geometry" />
        </mxCell>
        <mxCell id="Rj8yvfiRaS_MhN0IEIkL-24" value="1 LOADING PREFERENCES" style="html=1;dashed=0;whiteSpace=wrap;shape=mxgraph.dfd.start;fontStyle=1;fillColor=#b1ddf0;strokeColor=#10739e;" vertex="1" parent="1">
          <mxGeometry x="370" y="20" width="190" height="60" as="geometry" />
        </mxCell>
        <mxCell id="Rj8yvfiRaS_MhN0IEIkL-25" value="2 ID FOR EACH ARTIST TXT" style="html=1;dashed=0;whiteSpace=wrap;shape=mxgraph.dfd.start;fontStyle=1;fillColor=#b1ddf0;strokeColor=#10739e;" vertex="1" parent="1">
          <mxGeometry x="370" y="245" width="190" height="60" as="geometry" />
        </mxCell>
        <mxCell id="Rj8yvfiRaS_MhN0IEIkL-26" value="3 influencedBy retreival" style="html=1;dashed=0;whiteSpace=wrap;shape=mxgraph.dfd.start;fontStyle=1;fillColor=#b1ddf0;strokeColor=#10739e;" vertex="1" parent="1">
          <mxGeometry x="370" y="430" width="190" height="60" as="geometry" />
        </mxCell>
        <mxCell id="Rj8yvfiRaS_MhN0IEIkL-27" value="4 ponderation based on recurrency" style="html=1;dashed=0;whiteSpace=wrap;shape=mxgraph.dfd.start;fontStyle=1;fillColor=#b1ddf0;strokeColor=#10739e;" vertex="1" parent="1">
          <mxGeometry x="370" y="700" width="190" height="60" as="geometry" />
        </mxCell>
        <mxCell id="K4dFCDs9XO1rs7Z-Aw9C-18" value="SPARQL" style="rounded=1;whiteSpace=wrap;html=1;fillColor=#00CC00;fontColor=#FFFFFF;fontStyle=1" vertex="1" parent="1">
          <mxGeometry x="200" y="370" width="95" height="20" as="geometry" />
        </mxCell>
        <mxCell id="K4dFCDs9XO1rs7Z-Aw9C-19" value="SPARQL" style="rounded=1;whiteSpace=wrap;html=1;fillColor=#00CC00;fontColor=#FFFFFF;fontStyle=1" vertex="1" parent="1">
          <mxGeometry x="190" y="510" width="95" height="20" as="geometry" />
        </mxCell>
        <mxCell id="K4dFCDs9XO1rs7Z-Aw9C-20" value="&lt;b&gt;Getting songs based on preferences mapping&lt;/b&gt;" style="rounded=0;whiteSpace=wrap;html=1;" vertex="1" parent="1">
          <mxGeometry x="55" y="860" width="260" height="60" as="geometry" />
        </mxCell>
        <mxCell id="K4dFCDs9XO1rs7Z-Aw9C-26" style="edgeStyle=orthogonalEdgeStyle;rounded=0;orthogonalLoop=1;jettySize=auto;html=1;entryX=0.5;entryY=0;entryDx=0;entryDy=0;" edge="1" parent="1" source="K4dFCDs9XO1rs7Z-Aw9C-22" target="K4dFCDs9XO1rs7Z-Aw9C-20">
          <mxGeometry relative="1" as="geometry" />
        </mxCell>
        <mxCell id="K4dFCDs9XO1rs7Z-Aw9C-25" value="5 Getting songs based on &lt;br&gt;weight" style="html=1;dashed=0;whiteSpace=wrap;shape=mxgraph.dfd.start;fontStyle=1;fillColor=#b1ddf0;strokeColor=#10739e;" vertex="1" parent="1">
          <mxGeometry x="370" y="850" width="190" height="60" as="geometry" />
        </mxCell>
        <mxCell id="K4dFCDs9XO1rs7Z-Aw9C-27" value="SPARQL" style="rounded=1;whiteSpace=wrap;html=1;fillColor=#00CC00;fontColor=#FFFFFF;fontStyle=1" vertex="1" parent="1">
          <mxGeometry x="237.5" y="850" width="95" height="20" as="geometry" />
        </mxCell>
      </root>
    </mxGraphModel>
  </diagram>
  <diagram id="i8QHHmNDkatpHhGKZPLs" name="Page-2">
    <mxGraphModel dx="1434" dy="843" grid="1" gridSize="10" guides="1" tooltips="1" connect="1" arrows="1" fold="1" page="1" pageScale="1" pageWidth="850" pageHeight="1100" math="0" shadow="0">
      <root>
        <mxCell id="0" />
        <mxCell id="1" parent="0" />
        <mxCell id="uojL1W4N452_DLyviG67-15" value="&lt;font style=&quot;font-size: 15px;&quot;&gt;&lt;b style=&quot;&quot;&gt;&lt;font style=&quot;color: rgb(0, 204, 102);&quot;&gt;+1 = +2 &lt;/font&gt;&lt;font style=&quot;color: rgb(204, 0, 0);&quot;&gt;-1&lt;/font&gt;&lt;/b&gt;&lt;/font&gt;" style="text;html=1;align=center;verticalAlign=middle;whiteSpace=wrap;rounded=0;" vertex="1" parent="1">
          <mxGeometry x="135" y="410" width="140" height="30" as="geometry" />
        </mxCell>
        <mxCell id="cUVzpXmjI0cOgi6I7YJn-1" value="Bruno Mars" style="strokeWidth=2;html=1;shape=mxgraph.flowchart.start_2;whiteSpace=wrap;strokeColor=#00CC66;" vertex="1" parent="1">
          <mxGeometry x="425" y="320" width="160" height="160" as="geometry" />
        </mxCell>
        <mxCell id="cUVzpXmjI0cOgi6I7YJn-2" style="edgeStyle=orthogonalEdgeStyle;rounded=0;orthogonalLoop=1;jettySize=auto;html=1;strokeColor=#CC0000;strokeWidth=3;curved=1;" edge="1" parent="1" source="cUVzpXmjI0cOgi6I7YJn-3" target="cUVzpXmjI0cOgi6I7YJn-5">
          <mxGeometry relative="1" as="geometry" />
        </mxCell>
        <mxCell id="cUVzpXmjI0cOgi6I7YJn-3" value="Michael Jackson" style="strokeWidth=2;html=1;shape=mxgraph.flowchart.start_2;whiteSpace=wrap;" vertex="1" parent="1">
          <mxGeometry x="645" y="510" width="70" height="70" as="geometry" />
        </mxCell>
        <mxCell id="cUVzpXmjI0cOgi6I7YJn-4" value="Britney Spears" style="strokeWidth=2;html=1;shape=mxgraph.flowchart.start_2;whiteSpace=wrap;strokeColor=#00CC66;" vertex="1" parent="1">
          <mxGeometry x="235" y="220" width="140" height="130" as="geometry" />
        </mxCell>
        <mxCell id="cUVzpXmjI0cOgi6I7YJn-5" value="Sam Smith" style="strokeWidth=2;html=1;shape=mxgraph.flowchart.start_2;whiteSpace=wrap;strokeColor=#CC0000;" vertex="1" parent="1">
          <mxGeometry x="255" y="370" width="130" height="130" as="geometry" />
        </mxCell>
        <mxCell id="cUVzpXmjI0cOgi6I7YJn-6" style="edgeStyle=orthogonalEdgeStyle;rounded=0;orthogonalLoop=1;jettySize=auto;html=1;entryX=1;entryY=0.5;entryDx=0;entryDy=0;entryPerimeter=0;curved=1;strokeColor=#00CC66;strokeWidth=3;" edge="1" parent="1" source="cUVzpXmjI0cOgi6I7YJn-3" target="cUVzpXmjI0cOgi6I7YJn-1">
          <mxGeometry relative="1" as="geometry">
            <Array as="points">
              <mxPoint x="605" y="350" />
            </Array>
          </mxGeometry>
        </mxCell>
        <mxCell id="cUVzpXmjI0cOgi6I7YJn-7" style="edgeStyle=orthogonalEdgeStyle;rounded=0;orthogonalLoop=1;jettySize=auto;html=1;exitX=0.5;exitY=0;exitDx=0;exitDy=0;exitPerimeter=0;entryX=1;entryY=0.5;entryDx=0;entryDy=0;entryPerimeter=0;curved=1;strokeColor=#00CC66;strokeWidth=3;" edge="1" parent="1" source="cUVzpXmjI0cOgi6I7YJn-3" target="cUVzpXmjI0cOgi6I7YJn-4">
          <mxGeometry relative="1" as="geometry">
            <Array as="points">
              <mxPoint x="615" y="270" />
              <mxPoint x="375" y="270" />
            </Array>
          </mxGeometry>
        </mxCell>
        <mxCell id="cUVzpXmjI0cOgi6I7YJn-8" style="edgeStyle=orthogonalEdgeStyle;rounded=0;orthogonalLoop=1;jettySize=auto;html=1;curved=1;strokeColor=#00CC66;strokeWidth=3;" edge="1" parent="1" source="cUVzpXmjI0cOgi6I7YJn-9" target="cUVzpXmjI0cOgi6I7YJn-4">
          <mxGeometry relative="1" as="geometry" />
        </mxCell>
        <mxCell id="cUVzpXmjI0cOgi6I7YJn-9" value="Madonna" style="strokeWidth=2;html=1;shape=mxgraph.flowchart.start_2;whiteSpace=wrap;" vertex="1" parent="1">
          <mxGeometry x="155" y="120" width="80" height="80" as="geometry" />
        </mxCell>
        <mxCell id="cUVzpXmjI0cOgi6I7YJn-10" value="&lt;font style=&quot;font-size: 15px; color: rgb(0, 204, 102);&quot;&gt;&lt;b&gt;+1&lt;/b&gt;&lt;/font&gt;" style="text;html=1;align=center;verticalAlign=middle;whiteSpace=wrap;rounded=0;" vertex="1" parent="1">
          <mxGeometry x="195" y="90" width="60" height="30" as="geometry" />
        </mxCell>
        <mxCell id="cUVzpXmjI0cOgi6I7YJn-11" value="&lt;font style=&quot;font-size: 15px;&quot;&gt;&lt;b style=&quot;&quot;&gt;&lt;font style=&quot;color: rgb(0, 204, 102);&quot;&gt;+1 = +2 &lt;/font&gt;&lt;font style=&quot;color: rgb(204, 0, 0);&quot;&gt;-1&lt;/font&gt;&lt;/b&gt;&lt;/font&gt;" style="text;html=1;align=center;verticalAlign=middle;whiteSpace=wrap;rounded=0;" vertex="1" parent="1">
          <mxGeometry x="610" y="590" width="140" height="30" as="geometry" />
        </mxCell>
        <mxCell id="cUVzpXmjI0cOgi6I7YJn-12" style="edgeStyle=orthogonalEdgeStyle;rounded=0;orthogonalLoop=1;jettySize=auto;html=1;curved=1;strokeColor=#CC0000;strokeWidth=3;entryX=0.5;entryY=1;entryDx=0;entryDy=0;entryPerimeter=0;" edge="1" parent="1" source="cUVzpXmjI0cOgi6I7YJn-13" target="cUVzpXmjI0cOgi6I7YJn-5">
          <mxGeometry relative="1" as="geometry">
            <mxPoint x="365" y="560" as="targetPoint" />
          </mxGeometry>
        </mxCell>
        <mxCell id="cUVzpXmjI0cOgi6I7YJn-13" value="Whitney Huston" style="strokeWidth=2;html=1;shape=mxgraph.flowchart.start_2;whiteSpace=wrap;" vertex="1" parent="1">
          <mxGeometry x="395" y="600" width="80" height="80" as="geometry" />
        </mxCell>
        <mxCell id="cUVzpXmjI0cOgi6I7YJn-14" style="edgeStyle=orthogonalEdgeStyle;rounded=0;orthogonalLoop=1;jettySize=auto;html=1;entryX=0;entryY=0.5;entryDx=0;entryDy=0;entryPerimeter=0;curved=1;strokeWidth=3;strokeColor=#00CC66;" edge="1" parent="1" source="cUVzpXmjI0cOgi6I7YJn-13" target="cUVzpXmjI0cOgi6I7YJn-4">
          <mxGeometry relative="1" as="geometry">
            <Array as="points">
              <mxPoint x="215" y="600" />
              <mxPoint x="215" y="300" />
              <mxPoint x="235" y="300" />
            </Array>
          </mxGeometry>
        </mxCell>
        <mxCell id="cUVzpXmjI0cOgi6I7YJn-15" value="&lt;b style=&quot;forced-color-adjust: none; font-family: Helvetica; font-size: 15px; font-style: normal; font-variant-ligatures: normal; font-variant-caps: normal; letter-spacing: normal; orphans: 2; text-align: center; text-indent: 0px; text-transform: none; widows: 2; word-spacing: 0px; -webkit-text-stroke-width: 0px; white-space: normal; background-color: rgb(251, 251, 251); text-decoration-thickness: initial; text-decoration-style: initial; text-decoration-color: initial;&quot;&gt;&lt;font style=&quot;color: rgb(204, 0, 0); forced-color-adjust: none;&quot;&gt;0 = &lt;/font&gt;&lt;font style=&quot;forced-color-adjust: none; color: rgb(0, 204, 102);&quot;&gt;+1&lt;/font&gt;&lt;font style=&quot;color: rgb(204, 0, 0); forced-color-adjust: none;&quot;&gt; -1&lt;/font&gt;&lt;/b&gt;" style="text;whiteSpace=wrap;html=1;" vertex="1" parent="1">
          <mxGeometry x="485" y="630" width="100" height="40" as="geometry" />
        </mxCell>
        <mxCell id="cUVzpXmjI0cOgi6I7YJn-16" value="" style="endArrow=none;html=1;rounded=0;strokeWidth=6;strokeColor=#CC0000;" edge="1" parent="1">
          <mxGeometry width="50" height="50" relative="1" as="geometry">
            <mxPoint x="410" y="665" as="sourcePoint" />
            <mxPoint x="460" y="615" as="targetPoint" />
          </mxGeometry>
        </mxCell>
        <mxCell id="cUVzpXmjI0cOgi6I7YJn-17" value="DISCARDED" style="text;html=1;align=center;verticalAlign=middle;whiteSpace=wrap;rounded=0;" vertex="1" parent="1">
          <mxGeometry x="405" y="680" width="60" height="30" as="geometry" />
        </mxCell>
      </root>
    </mxGraphModel>
  </diagram>
</mxfile>
